<?xml version="1.0" encoding="utf-8"?>
<!-- Generator: Adobe Illustrator 19.2.0, SVG Export Plug-In . SVG Version: 6.00 Build 0)  -->
<!DOCTYPE svg PUBLIC "-//W3C//DTD SVG 1.1//EN" "http://www.w3.org/Graphics/SVG/1.1/DTD/svg11.dtd">
<svg version="1.1" id="Layer_1" xmlns="http://www.w3.org/2000/svg" xmlns:xlink="http://www.w3.org/1999/xlink" x="0px" y="0px"
	 width="1202.5px" height="2048px" viewBox="0 0 1202.5 2048" style="enable-background:new 0 0 1202.5 2048;" xml:space="preserve"
	>
<path d="M1138.1,436.4c-112.1-201.7-535-191.8-535-191.8C174.6,244.7,70.8,428,70.8,428c-176.5,221.3,36.4,551.9,36.4,551.9
	c44.8,70,42,137.3,42,137.3c-72.8,218.5,25.2,425.8,25.2,425.8c151.3,282.9,428.7,245.1,428.7,245.1
	c325.1,0,408.9-222.7,408.9-222.7c123.3-204.5,39.2-437,39.2-437c-5.6-72.8,53.2-151.3,53.2-151.3
	C1303.4,621.3,1138.1,436.4,1138.1,436.4z M922.4,851c0,0-25.2,39.2-114.9,22.4c0,0-105.8-35.7-204.4-28c0,0-145.8,0-224.2,44.8
	c0,0-72.8,14-103.7-44.8c0,0-89.6-95.2-39.2-254.9c0,0-8.4-70,151.3-95.2c0,0,288.5-56,504.3,19.6c0,0,75.6,14,92.4,114.9
	C984,629.7,989.6,761.4,922.4,851z"/>
</svg>
