<?xml version="1.0" encoding="utf-8"?>
<!-- Generator: Adobe Illustrator 19.2.0, SVG Export Plug-In . SVG Version: 6.00 Build 0)  -->
<!DOCTYPE svg PUBLIC "-//W3C//DTD SVG 1.1//EN" "http://www.w3.org/Graphics/SVG/1.1/DTD/svg11.dtd">
<svg version="1.1" id="Layer_1" xmlns="http://www.w3.org/2000/svg" xmlns:xlink="http://www.w3.org/1999/xlink" x="0px" y="0px"
	 width="1521.5px" height="2048px" viewBox="0 0 1521.5 2048" style="enable-background:new 0 0 1521.5 2048;" xml:space="preserve"
	>
<path d="M1259.1,1156c-59.1-144.2-88.7-296.1-88.7-455.8c0-100.6-29.2-180.4-87.8-239.6c-58.5-59.1-139-94.8-241.4-107
	c4.9-11,7.3-22.2,7.3-33.8c0-24.4-8.5-45.1-25.6-62.2c-17.1-17.1-37.8-25.6-62.2-25.6c-24.4,0-45.1,8.5-62.2,25.6
	S673,295.4,673,319.8c0,11.6,2.4,22.8,7.3,33.8c-102.4,12.2-182.9,47.9-241.4,107c-58.5,59.1-87.8,139-87.8,239.6
	c0,159.7-29.6,311.6-88.7,455.8C203.3,1300.1,115.8,1421.3,0,1519.4c0,31.7,11.6,59.1,34.7,82.3c23.2,23.2,50.6,34.7,82.3,34.7
	h409.6c0,64.6,22.8,119.8,68.6,165.5c45.7,45.7,100.9,68.6,165.5,68.6c64.6,0,119.8-22.9,165.5-68.6
	c45.7-45.7,68.6-100.9,68.6-165.5h409.6c31.7,0,59.1-11.6,82.3-34.7c23.2-23.2,34.7-50.6,34.7-82.3
	C1405.7,1421.3,1318.2,1300.1,1259.1,1156z M760.8,1797.4c-44.5,0-82.5-15.7-113.8-47.1c-31.4-31.4-47.1-69.4-47.1-113.9
	c0-9.8,4.9-14.6,14.6-14.6c9.8,0,14.6,4.9,14.6,14.6c0,36,13,66.9,38.9,92.8c25.9,25.9,56.8,38.9,92.8,38.9
	c9.8,0,14.6,4.9,14.6,14.6C775.4,1792.5,770.5,1797.4,760.8,1797.4z"/>
</svg>
