<?xml version="1.0" encoding="utf-8"?>
<!-- Generator: Adobe Illustrator 19.2.0, SVG Export Plug-In . SVG Version: 6.00 Build 0)  -->
<!DOCTYPE svg PUBLIC "-//W3C//DTD SVG 1.1//EN" "http://www.w3.org/Graphics/SVG/1.1/DTD/svg11.dtd">
<svg version="1.1" id="Layer_1" xmlns="http://www.w3.org/2000/svg" xmlns:xlink="http://www.w3.org/1999/xlink" x="0px" y="0px"
	 width="1284.8px" height="2048px" viewBox="0 0 1284.8 2048" style="enable-background:new 0 0 1284.8 2048;" xml:space="preserve"
	>
<path d="M1284.3,1298.3C1227.7,817.1,888,541.1,888,541.1l-49.5-162.7C810.2,300.5,756.3,251,756.3,251H364.4
	c-35.4,0-77.8,92-77.8,92l7.1,240.6c63.7,99.1,318.4,84.9,318.4,84.9c49.6,0,84.9-92,84.9-92c92,268.9,49.5,573.2,49.5,573.2
	l-49.5,21.2c-14.1-134.4-198.1-134.4-198.1-134.4c-148.6,0-247.7,155.7-247.7,155.7c-99.1-85-226.5-106.2-226.5-106.2
	c-8.6,0.5-16.5,1.4-24.7,2.1l187.1,673.6C626.5,1873.3,980,1638,980,1638c28.3-49.5,198.1-120.3,198.1-120.3
	C1298.4,1404.4,1284.3,1298.3,1284.3,1298.3z"/>
</svg>
