<?xml version="1.0" encoding="utf-8"?>
<!-- Generator: Adobe Illustrator 19.2.0, SVG Export Plug-In . SVG Version: 6.00 Build 0)  -->
<!DOCTYPE svg PUBLIC "-//W3C//DTD SVG 1.1//EN" "http://www.w3.org/Graphics/SVG/1.1/DTD/svg11.dtd">
<svg version="1.1" id="Layer_1" xmlns="http://www.w3.org/2000/svg" xmlns:xlink="http://www.w3.org/1999/xlink" x="0px" y="0px"
	 width="1711.7px" height="2048px" viewBox="0 0 1711.7 2048" style="enable-background:new 0 0 1711.7 2048;" xml:space="preserve"
	>
<path d="M1711.7,870.7c0-25.4-19.2-41.1-57.6-47.3l-516.4-75.1l-231.4-468c-13-28.1-29.8-42.2-50.4-42.2
	c-20.6,0-37.4,14.1-50.4,42.2L574,748.3L57.6,823.4C19.2,829.5,0,845.3,0,870.7c0,14.4,8.6,30.9,25.7,49.4l374.4,364.1l-88.5,514.3
	c-1.4,9.6-2.1,16.5-2.1,20.6c0,14.4,3.6,26.6,10.8,36.5c7.2,9.9,18,14.9,32.4,14.9c12.3,0,26.1-4.1,41.1-12.3l461.9-242.8
	l461.9,242.8c14.4,8.2,28.1,12.3,41.1,12.3c13.7,0,24.2-4.9,31.4-14.9c7.2-9.9,10.8-22.1,10.8-36.5c0-8.9-0.3-15.8-1-20.6
	l-88.5-514.3l373.4-364.1C1702.8,902.2,1711.7,885.8,1711.7,870.7z"/>
</svg>
