<?xml version="1.0" encoding="utf-8"?>
<!-- Generator: Adobe Illustrator 19.2.0, SVG Export Plug-In . SVG Version: 6.00 Build 0)  -->
<!DOCTYPE svg PUBLIC "-//W3C//DTD SVG 1.1//EN" "http://www.w3.org/Graphics/SVG/1.1/DTD/svg11.dtd">
<svg version="1.1" id="Layer_1" xmlns="http://www.w3.org/2000/svg" xmlns:xlink="http://www.w3.org/1999/xlink" x="0px" y="0px"
	 width="1574.4px" height="2048px" viewBox="0 0 1574.4 2048" style="enable-background:new 0 0 1574.4 2048;" xml:space="preserve"
	>
<path d="M115.8,675.3c-46.4,29.3-83.2,72.5-105,123.2C-13,854,3.5,917,50.4,950l853.7,601.5c182.8,128.8,294.8,183.7,462.9,191.3
	c65.3,3,128.2-7.9,175.1-62.7c46.9-54.9,37.8-120.1,3.1-169.7l-98.2-140.4c-78.8-112.7-146.7-233.2-203-359.8l-42.7-96.3l-59-215.3
	c-9-32.7-41-52.1-74.3-45l-105.1,22.1l-0.5-0.7c-15.9-23.2-42-37.2-70.1-38.3c-47.8-2-127.9-14-201.2-65.7
	c-97.2-68.5-141.6-157-161.1-212.6c-13.1-37.2-52.6-58.6-90.6-47.9c-50.8,14.2-99.8,47.6-135.5,83.5c-45.9,46.2-85.3,95.7-110.2,128
	c-26.4,34.3-57.2,91.4-63.5,144.3L115.8,675.3z M1076,896.7c-16.2,23-48,28.5-70.9,12.3c-23-16.2-28.5-48-12.3-71
	c16.2-23,48-28.5,71-12.3C1086.7,841.9,1092.2,873.7,1076,896.7z M1146.3,1049.4c-16.7,23.7-49.4,29.4-73.2,12.7
	c-23.7-16.7-29.4-49.4-12.7-73.1c16.7-23.7,49.4-29.4,73.1-12.7C1157.3,993,1163,1025.7,1146.3,1049.4z M1222,1205.9
	c-17.2,24.4-51,30.3-75.4,13.1c-24.4-17.2-30.3-51-13.1-75.4c17.2-24.4,51-30.3,75.4-13.1C1233.3,1147.7,1239.2,1181.5,1222,1205.9z
	 M148.3,828.5c17.2-24.4,51-30.3,75.4-13.1c11.8,8.3,175.8,123.9,187.5,132.1c24.4,17.2,30.3,51,13.1,75.4
	c-17.2,24.4-51,30.3-75.4,13.1c-11.8-8.3-175.8-123.8-187.5-132.1C137,886.7,131.1,852.9,148.3,828.5z"/>
</svg>
