<?xml version="1.0" encoding="utf-8"?>
<!-- Generator: Adobe Illustrator 19.2.0, SVG Export Plug-In . SVG Version: 6.00 Build 0)  -->
<!DOCTYPE svg PUBLIC "-//W3C//DTD SVG 1.1//EN" "http://www.w3.org/Graphics/SVG/1.1/DTD/svg11.dtd">
<svg version="1.1" id="Layer_1" xmlns="http://www.w3.org/2000/svg" xmlns:xlink="http://www.w3.org/1999/xlink" x="0px" y="0px"
	 width="1605.8px" height="2048px" viewBox="0 0 1605.8 2048" style="enable-background:new 0 0 1605.8 2048;" xml:space="preserve"
	>
<path d="M804.4,1350.5l471,471c26.7,26.8,59.2,40.1,97.4,40.1c38.2,0,70.7-13.4,97.4-40.1l95.4-95.4c26.8-26.8,40.1-59.2,40.1-97.4
	c0-38.2-13.4-70.7-40.1-97.5l-471-471l471-471c26.8-26.7,40.1-59.2,40.1-97.4c0-38.2-13.4-70.7-40.1-97.4l-95.4-95.4
	c-26.7-26.7-59.2-40.1-97.4-40.1c-38.2,0-70.7,13.4-97.4,40.1l-471,471l-471-471c-26.8-26.7-59.2-40.1-97.4-40.1
	s-70.7,13.4-97.4,40.1l-95.4,95.4C16.4,421.1,3,453.6,3,491.8c0,38.2,13.4,70.7,40.1,97.4l471,471l-471,471
	C16.4,1558,3,1590.5,3,1628.7c0,38.2,13.4,70.7,40.1,97.4l95.4,95.4c26.7,26.8,59.2,40.1,97.4,40.1s70.7-13.4,97.4-40.1
	L804.4,1350.5z"/>
</svg>
